<svg xmlns="http://www.w3.org/2000/svg" width="334" height="98" viewBox="0 0 334 98" fill="none"><g clip-path="url(#clip0_197_2158)"><path d="M0.704346 29.5697L51.3456 59.0457V0.0898438L0.704346 29.5697Z" fill="#F20057"></path><path d="M0.704346 88.5243L51.3456 59.0444L0.704346 29.5684V88.5243Z" fill="#EA86B4"></path><path d="M101.983 29.5697L51.3457 59.0457V0.0898438L101.983 29.5697Z" fill="#004DF9"></path><path d="M101.983 88.5243L51.3457 59.0444L101.983 29.5684V88.5243Z" fill="#6DA0FC"></path><path opacity="0.32" d="M0.704346 29.5684L39.87 65.7251L51.3456 59.0444L0.704346 29.5684Z" fill="black"></path><path opacity="0.32" d="M101.983 29.5684L62.8174 65.7251L51.3457 59.0444L101.983 29.5684Z" fill="black"></path><path d="M129.807 44.5701C128.23 44.5701 126.721 44.3429 125.282 43.8962C123.842 43.4457 122.524 42.7757 121.325 41.8747C120.126 40.9775 119.08 39.8801 118.186 38.5863C117.296 37.2886 116.594 35.7792 116.078 34.0503L122.605 31.4589C123.082 33.3264 123.926 34.8743 125.121 36.0988C126.32 37.3272 127.897 37.9394 129.849 37.9394C130.567 37.9394 131.262 37.847 131.934 37.6544C132.602 37.4658 133.198 37.1885 133.733 36.8266C134.263 36.4646 134.683 36.0064 134.993 35.4519C135.302 34.8975 135.455 34.2621 135.455 33.5343C135.455 32.8412 135.333 32.2213 135.096 31.6668C134.855 31.1123 134.454 30.5964 133.885 30.1112C133.32 29.626 132.583 29.1601 131.678 28.7096C130.769 28.2591 129.646 27.7932 128.31 27.308L126.049 26.4801C125.052 26.1374 124.052 25.6677 123.04 25.0824C122.028 24.4932 121.111 23.7847 120.29 22.9569C119.469 22.129 118.79 21.1509 118.259 20.0266C117.728 18.9061 117.461 17.6354 117.461 16.2184C117.461 14.7667 117.743 13.4113 118.308 12.1483C118.874 10.8854 119.679 9.78025 120.726 8.82916C121.772 7.88193 123.021 7.13877 124.48 6.59969C125.935 6.06446 127.554 5.79492 129.337 5.79492C131.189 5.79492 132.789 6.0452 134.145 6.54963C135.497 7.0502 136.646 7.6894 137.59 8.46721C138.529 9.24502 139.293 10.0998 139.877 11.0355C140.458 11.9674 140.889 12.8491 141.16 13.677L135.042 16.2684C134.699 15.2326 134.072 14.297 133.167 13.4691C132.259 12.6374 131.017 12.2253 129.444 12.2253C127.936 12.2253 126.687 12.5796 125.69 13.2881C124.693 13.9966 124.197 14.9207 124.197 16.0605C124.197 17.1695 124.674 18.109 125.637 18.8868C126.595 19.6646 128.123 20.4155 130.212 21.1432L132.526 21.9211C134 22.437 135.344 23.0339 136.562 23.7077C137.781 24.3816 138.827 25.1863 139.698 26.1182C140.572 27.0539 141.24 28.1128 141.702 29.3064C142.165 30.4963 142.397 31.8709 142.397 33.4265C142.397 35.3634 142.012 37.0307 141.24 38.4284C140.469 39.83 139.484 40.9775 138.285 41.8747C137.086 42.7757 135.73 43.4495 134.221 43.8962C132.721 44.3467 131.247 44.5701 129.807 44.5701Z" fill="black"></path><path d="M158.337 6.62988H166.254L180.081 43.7416H172.421L169.389 34.8776H155.202L152.17 43.7416H144.509L158.337 6.62988ZM167.124 28.451L163.832 19.175L162.5 14.666H162.087L160.751 19.175L157.459 28.451H167.124Z" fill="black"></path><path d="M184.397 6.62988H191.336V37.1071H206.913V43.7416H184.397V6.62988Z" fill="black"></path><path d="M218.785 13.2644V21.8704H233.541V28.5049H218.785V37.1071H235.183V43.7416H211.846V6.62988H235.183V13.2644H218.785Z" fill="black"></path><path d="M252.815 44.5701C251.237 44.5701 249.729 44.3429 248.289 43.8962C246.85 43.4457 245.532 42.7757 244.333 41.8747C243.134 40.9775 242.088 39.8801 241.194 38.5863C240.304 37.2886 239.601 35.7792 239.086 34.0503L245.612 31.4589C246.09 33.3264 246.934 34.8743 248.129 36.0988C249.328 37.3272 250.905 37.9394 252.857 37.9394C253.574 37.9394 254.27 37.847 254.942 37.6544C255.61 37.4658 256.206 37.1885 256.74 36.8266C257.271 36.4646 257.691 36.0064 258.001 35.4519C258.31 34.8975 258.463 34.2621 258.463 33.5343C258.463 32.8412 258.34 32.2213 258.104 31.6668C257.863 31.1123 257.462 30.5964 256.893 30.1112C256.328 29.626 255.591 29.1601 254.686 28.7096C253.777 28.2591 252.654 27.7932 251.318 27.308L249.057 26.4801C248.06 26.1374 247.06 25.6677 246.048 25.0824C245.036 24.4932 244.119 23.7847 243.298 22.9569C242.477 22.129 241.797 21.1509 241.266 20.0266C240.736 18.9061 240.468 17.6354 240.468 16.2184C240.468 14.7667 240.751 13.4113 241.316 12.1483C241.881 10.8854 242.687 9.78025 243.733 8.82916C244.78 7.88193 246.029 7.13877 247.487 6.59969C248.942 6.06446 250.561 5.79492 252.345 5.79492C254.197 5.79492 255.797 6.0452 257.153 6.54963C258.505 7.0502 259.654 7.6894 260.597 8.46721C261.537 9.24502 262.3 10.0998 262.885 11.0355C263.465 11.9674 263.897 12.8491 264.168 13.677L258.05 16.2684C257.706 15.2326 257.08 14.297 256.175 13.4691C255.266 12.6374 254.025 12.2253 252.452 12.2253C250.943 12.2253 249.695 12.5796 248.698 13.2881C247.701 13.9966 247.205 14.9207 247.205 16.0605C247.205 17.1695 247.682 18.109 248.644 18.8868C249.603 19.6646 251.13 20.4155 253.219 21.1432L255.534 21.9211C257.008 22.437 258.352 23.0339 259.57 23.7077C260.788 24.3816 261.835 25.1863 262.705 26.1182C263.58 27.0539 264.248 28.1128 264.71 29.3064C265.172 30.4963 265.405 31.8709 265.405 33.4265C265.405 35.3634 265.019 37.0307 264.248 38.4284C263.477 39.83 262.491 40.9775 261.292 41.8747C260.093 42.7757 258.738 43.4495 257.229 43.8962C255.728 44.3467 254.254 44.5701 252.815 44.5701Z" fill="black"></path><path d="M150.73 82.7034C148.912 84.9137 146.774 86.6002 144.303 87.7554C141.836 88.9144 139.075 89.492 136.028 89.492C133.286 89.492 130.743 88.9914 128.394 87.9903C126.045 86.9891 124.018 85.6222 122.303 83.8933C120.588 82.1644 119.233 80.1197 118.24 77.7516C117.247 75.3835 116.747 72.8345 116.747 70.1083C116.747 67.3821 117.243 64.8292 118.24 62.4649C119.233 60.0968 120.588 58.0522 122.303 56.3233C124.018 54.5944 126.045 53.2274 128.394 52.2263C130.743 51.2251 133.286 50.7207 136.028 50.7207C138.976 50.7207 141.569 51.2405 143.818 52.2763C146.06 53.3121 148.057 54.8138 149.806 56.7853L144.922 61.5523C143.822 60.2739 142.566 59.2535 141.145 58.495C139.724 57.7364 138.036 57.3552 136.081 57.3552C134.367 57.3552 132.759 57.6594 131.25 58.264C129.742 58.8685 128.432 59.7272 127.317 60.8323C126.202 61.9374 125.32 63.2774 124.671 64.8484C124.021 66.4233 123.693 68.1753 123.693 70.1121C123.693 72.0489 124.018 73.801 124.671 75.372C125.32 76.9469 126.202 78.283 127.317 79.3881C128.428 80.4932 129.742 81.348 131.25 81.9526C132.759 82.5571 134.367 82.8613 136.081 82.8613C138.136 82.8613 139.961 82.4378 141.554 81.5906C143.146 80.7435 144.563 79.546 145.796 77.9865L150.73 82.7034Z" fill="black"></path><path d="M169.748 89.4923C167.59 89.4923 165.627 89.138 163.863 88.4295C162.099 87.7249 160.602 86.6929 159.364 85.3452C158.131 83.9975 157.169 82.3649 156.485 80.4473C155.798 78.5297 155.458 76.3426 155.458 73.8898V51.5527H162.397V74.3057C162.397 75.5494 162.553 76.6892 162.859 77.725C163.168 78.7608 163.63 79.6618 164.249 80.4204C164.867 81.1828 165.635 81.7796 166.563 82.207C167.487 82.6383 168.549 82.8539 169.748 82.8539C170.981 82.8539 172.062 82.6383 172.986 82.207C173.91 81.7758 174.682 81.1789 175.3 80.4204C175.919 79.6618 176.381 78.7608 176.687 77.725C176.996 76.6892 177.149 75.5494 177.149 74.3057V51.5527H184.087V73.8898C184.087 76.204 183.751 78.3218 183.087 80.2394C182.419 82.157 181.456 83.8012 180.207 85.1643C178.955 86.5312 177.45 87.5901 175.682 88.3525C173.922 89.1149 171.944 89.4923 169.748 89.4923Z" fill="black"></path><path d="M190.667 51.5527H197.606V82.0299H213.183V88.6644H190.667V51.5527Z" fill="black"></path><path d="M222.077 88.6644V58.1872H211.796V51.5527H239.296V58.1872H229.015V88.6644H222.077Z" fill="black"></path><path d="M257.703 89.4923C255.545 89.4923 253.582 89.138 251.818 88.4295C250.054 87.7249 248.557 86.6929 247.319 85.3452C246.086 83.9975 245.124 82.3649 244.44 80.4473C243.753 78.5297 243.413 76.3426 243.413 73.8898V51.5527H250.352V74.3057C250.352 75.5494 250.508 76.6892 250.814 77.725C251.123 78.7608 251.585 79.6618 252.204 80.4204C252.822 81.1828 253.59 81.7796 254.518 82.207C255.442 82.6383 256.504 82.8539 257.703 82.8539C258.936 82.8539 260.017 82.6383 260.941 82.207C261.865 81.7758 262.637 81.1789 263.255 80.4204C263.874 79.6618 264.336 78.7608 264.641 77.725C264.951 76.6892 265.104 75.5494 265.104 74.3057V51.5527H272.042V73.8898C272.042 76.204 271.706 78.3218 271.042 80.2394C270.373 82.157 269.411 83.8012 268.162 85.1643C266.91 86.5312 265.405 87.5901 263.637 88.3525C261.873 89.1149 259.895 89.4923 257.703 89.4923Z" fill="black"></path><path d="M278.622 51.5527H292.041C293.893 51.5527 295.57 51.8454 297.078 52.4306C298.587 53.0198 299.881 53.8323 300.962 54.8681C302.043 55.9039 302.871 57.1399 303.455 58.5762C304.036 60.0086 304.326 61.5719 304.326 63.2661C304.326 64.5099 304.12 65.6766 303.711 66.7663C303.299 67.856 302.734 68.8379 302.016 69.7197C301.294 70.6014 300.454 71.3793 299.495 72.0531C298.537 72.727 297.525 73.2545 296.463 73.6357L296.414 73.9976L306.281 88.2524V88.6683H298.315L288.807 74.7254H285.568V88.6683H278.629V51.5527H278.622ZM291.988 68.295C293.565 68.295 294.856 67.8098 295.871 66.8433C296.883 65.8768 297.387 64.6485 297.387 63.1622C297.387 62.5076 297.273 61.8645 297.051 61.2446C296.826 60.6208 296.494 60.0702 296.051 59.585C295.604 59.1037 295.05 58.7109 294.378 58.4183C293.71 58.1256 292.946 57.9793 292.091 57.9793H285.564V68.295H291.988Z" fill="black"></path><path d="M317.433 58.1872V66.7932H332.189V73.4278H317.433V82.0299H333.831V88.6644H310.494V51.5527H333.831V58.1872H317.433Z" fill="black"></path></g><defs><clipPath id="clip0_197_2158"><rect width="333" height="97.8042" fill="white" transform="translate(0.704346 0.0898438)"></rect></clipPath></defs></svg>